<?xml version="1.0" encoding="UTF-8"?><svg id="Layer_1_copy" xmlns="http://www.w3.org/2000/svg" viewBox="0 0 2873.94 1874.33"><defs><style>.cls-1{fill:#736357;}</style></defs><path class="cls-1" d="M1474.15,728.8c22.07-6.65,45.1-9.42,67.94-11.96,45.86-4.67,92.06-5.71,138.12-3.79,80.62,3.96,163.03,15.54,235.86,52.38,41.68,21.35,82.19,49.96,105.89,91.63,25.39,44.41,21.47,98.15-9.02,139.11-75.37,100.61-253.95,127.33-372.22,134.7-174.21,11.77-380.73-43.43-518.31-153.12-67.52-54.24-136.89-139.27-115.55-231.63,6.22-26.3,18.07-50.86,35.61-71.38,22.02-26.27,57.84-45.7,93.02-38.23,32.33,6.8,55.09,32.31,71.79,58.64,9.42,15,17.21,30.57,23.76,46.88,2.17,5.38,4.17,10.82,5.89,16.33-.62-6.12-.79-12.27-.81-18.42,.05-18.61,1.88-37.02,6.09-55.29,6.01-25.21,16.08-52.17,38.59-67.3,37.39-23.95,82.74,4.28,107.63,33.39,26.16,30.33,38.96,66.77,33.9,106.79-10.55,74.96-67.19,133.73-128.54,172.87,19.47-14.55,37.74-30.63,53.93-48.51,37.89-41.99,70.13-99.62,59.73-157.82-4.32-23.12-16.5-44.24-32.44-61.34-15.02-15.8-33.87-29.69-55.61-33.01-21.5-3.42-36.57,10.39-47.37,28.48-14.74,24.88-22.53,54.28-30.03,82.38-1.55,5.88-3,11.81-4.51,17.79,0,0,.05,2.41,.05,2.41,0,0-1.12-2.22-1.12-2.22-17.49-33.73-42.43-69.21-76.33-87.05-33.81-17.49-63.52-.35-81.34,30.1-11.93,20.62-18.62,44.69-19.16,68.46-.2,44.59,25.61,84.62,54.21,117.26,36.15,40.56,80.17,73.53,126.45,102.03,109.79,66.35,236.35,108.12,365.18,110.7,11.13,.35,22.59-.05,33.74-.34,95.45-3.46,193.44-14.36,280.53-55.55,47.74-23.18,96.53-61.55,101.98-117.76,6.48-81.85-74.89-136.53-141.42-165.94-44.56-19.09-92.44-29.9-140.43-36.52-42.64-5.79-85.7-8.31-128.73-8.23-34.45,.18-68.98,1.76-103.15,6.38-11.38,1.61-22.74,3.52-33.81,6.68h0Z"/><path class="cls-1" d="M1112.88,922.59c59.67,82.87,83.22,194.17,61.6,294.77-5.5,27.49-14.18,55.22-19.65,82.61-22.47,107.44,6.45,217.22,62.51,309.89,43.97,74.32,111.27,132.52,187,173.15,66.7,35.63,138.84,59.77,213.82,72.02-12.88,1.34-25.86,1.72-38.86,1.71-26.11-.14-52.19-2.31-78.01-6.24-130.91-19.51-256.92-85.82-335.54-195-34.45-48.08-62.01-101.37-78.85-158.24-20.64-69.03-16.95-141.78,8.91-208.94,8.96-24.31,21.29-48.28,30.99-72.2,8.2-20.06,14.49-40.55,17.72-61.91,2.35-15.04,3.6-31.07,3.76-46.29,.74-48.56-8.67-97.27-26.88-142.27-5.34-13.07-11.32-25.99-18.25-38.3,0,0,9.72-4.77,9.72-4.77h0Z"/><path class="cls-1" d="M1352.89,758.36c-66.95,50.3-132.04,105.38-188.19,166.92-41.33,45.16-77.82,92.61-109.8,144.17-15.76,25.21-30.14,51.98-43.55,78.46-13.76,27.04-26.58,54.25-38.52,82.07-26.6,62.46-48.6,127.46-59.45,194.55-9.36,58.73-9.67,120.39,9.55,177,7.38,21.75,17.38,42.47,30.12,61.64,30.93,45.69,73.29,85.52,124.81,106.45,65.81,27.03,140.96,16.78,205.55-9.92,122.42-51.02,217.16-154.25,287.75-264.66-52.65,164.79-177.22,321.23-349.37,368.04-122.46,32.48-236.25-6.9-322.17-97.94-59.46-62.15-93.62-140.47-101.09-226.01-11.32-133.75,35.36-266.07,98.49-381.98,36.98-67.2,79.98-131.62,132.71-187.47,89.11-94.8,200.57-167.99,323.15-211.32h0Z"/></svg>