<?xml version="1.0" encoding="UTF-8"?><svg id="Layer_1_copy" xmlns="http://www.w3.org/2000/svg" viewBox="0 0 2873.94 1874.33"><defs><style>.cls-1{fill:#736357;}</style></defs><path class="cls-1" d="M802.97,728.8c22.07-6.65,45.1-9.42,67.94-11.96,45.86-4.67,92.06-5.71,138.12-3.79,80.62,3.96,163.03,15.54,235.86,52.38,41.68,21.35,82.19,49.96,105.89,91.63,25.39,44.41,21.47,98.15-9.02,139.11-75.37,100.61-253.95,127.33-372.22,134.7-174.21,11.77-380.73-43.43-518.31-153.12-67.52-54.24-136.89-139.27-115.55-231.63,6.22-26.3,18.07-50.86,35.61-71.38,22.02-26.27,57.84-45.7,93.02-38.23,32.33,6.8,55.09,32.31,71.79,58.64,9.42,15,17.21,30.57,23.76,46.88,2.17,5.38,4.17,10.82,5.89,16.33-.62-6.12-.79-12.27-.81-18.42,.05-18.61,1.89-37.02,6.09-55.29,6.01-25.21,16.08-52.17,38.59-67.3,37.39-23.95,82.74,4.28,107.63,33.39,26.16,30.33,38.96,66.77,33.9,106.79-10.55,74.96-67.19,133.73-128.54,172.87,19.47-14.55,37.74-30.63,53.93-48.51,37.9-42.02,70.12-99.6,59.73-157.82-4.32-23.12-16.5-44.24-32.44-61.34-15.02-15.8-33.87-29.69-55.61-33.01-21.5-3.42-36.57,10.39-47.37,28.48-14.74,24.88-22.53,54.28-30.03,82.38-1.55,5.88-3,11.81-4.51,17.79,0,0,.05,2.41,.05,2.41,0,0-1.12-2.22-1.12-2.22-17.49-33.73-42.43-69.21-76.33-87.05-33.81-17.49-63.52-.35-81.34,30.1-11.93,20.62-18.62,44.69-19.16,68.46-.2,44.59,25.61,84.62,54.22,117.26,36.15,40.56,80.17,73.53,126.45,102.03,109.79,66.35,236.35,108.12,365.18,110.7,11.13,.35,22.59-.05,33.74-.34,95.45-3.46,193.44-14.36,280.53-55.55,47.74-23.18,96.53-61.55,101.98-117.76,6.48-81.85-74.89-136.53-141.42-165.94-44.56-19.09-92.44-29.9-140.43-36.52-42.64-5.79-85.7-8.31-128.73-8.23-34.45,.18-68.98,1.76-103.15,6.38-11.38,1.61-22.74,3.52-33.81,6.68h0Z"/><path class="cls-1" d="M441.7,922.59c59.67,82.87,83.22,194.17,61.6,294.77-5.5,27.49-14.18,55.22-19.65,82.61-22.47,107.44,6.45,217.22,62.51,309.89,43.97,74.32,111.27,132.52,187,173.15,66.7,35.63,138.84,59.77,213.82,72.02-12.88,1.34-25.86,1.72-38.86,1.71-26.11-.14-52.19-2.31-78.01-6.24-130.91-19.51-256.92-85.82-335.54-195-34.45-48.08-62.01-101.37-78.85-158.24-20.64-69.03-16.95-141.78,8.91-208.94,8.96-24.31,21.29-48.28,30.99-72.2,8.2-20.06,14.49-40.55,17.72-61.91,2.35-15.04,3.6-31.07,3.76-46.29,.74-48.56-8.67-97.27-26.88-142.27-5.34-13.07-11.32-25.99-18.25-38.3,0,0,9.72-4.77,9.72-4.77h0Z"/><path class="cls-1" d="M681.71,758.36c-66.95,50.3-132.04,105.38-188.19,166.92-41.33,45.16-77.82,92.61-109.8,144.17-15.76,25.21-30.14,51.98-43.55,78.46-13.75,27.04-26.58,54.25-38.52,82.07-26.6,62.46-48.6,127.46-59.45,194.55-9.36,58.73-9.67,120.39,9.55,177,7.38,21.75,17.38,42.47,30.12,61.64,30.93,45.7,73.29,85.52,124.81,106.45,65.81,27.03,140.96,16.78,205.55-9.92,122.42-51.02,217.16-154.25,287.75-264.66-52.65,164.79-177.22,321.23-349.37,368.04-122.46,32.48-236.25-6.9-322.17-97.94-59.46-62.15-93.62-140.47-101.09-226.01-11.32-133.75,35.36-266.07,98.49-381.98,36.98-67.2,79.98-131.62,132.71-187.47,89.11-94.8,200.57-167.99,323.15-211.32h0Z"/><g><path class="cls-1" d="M1077.48,1534.52c-.37,2.22-1.76,3.98-4.16,5.27-2.41,1.3-5.27,2.22-8.6,2.77s-6.75,.83-10.26,.83-6.57-.55-9.15-1.66c5.17,3.33,9.98,7.21,14.42,11.65,4.44,4.44,8.13,9.34,11.09,14.7,2.96,5.36,4.9,10.81,5.82,16.36,.92,5.55,.28,10.91-1.94,16.08-1.48,2.59-3.15,5.46-4.99,8.6-1.85,3.15-3.7,6.38-5.55,9.71-4.07,7.03-8.23,14.61-12.48,22.74-4.25,8.14-8.23,16.08-11.92,23.85-3.7,7.76-6.93,15.07-9.71,21.91-2.77,6.85-4.53,12.67-5.27,17.47,0,.75-.28,1.3-.83,1.66-.55,.37-1.02,.75-1.39,1.11h3.88c11.09-3.69,21.81-9.79,32.17-18.3,10.35-8.5,20.42-18.21,30.23-29.12,9.79-10.9,19.22-22.55,28.28-34.94,9.06-12.38,17.65-24.31,25.79-35.77,2.95-2.96,5.17-5.55,6.65-7.76,1.47-2.22,2.96-4.62,4.44-7.21,1.47-1.85,4.25-2.31,8.32-1.39,4.06,.93,7.95,2.69,11.65,5.27,3.69,2.59,6.66,5.64,8.87,9.15,2.22,3.52,2.22,6.57,0,9.15l-16.08,22.18v.55c-15.9,21.82-32.44,43.35-49.64,64.61-17.19,21.27-36.33,40.4-57.4,57.4-3.33,2.96-7.49,6.2-12.48,9.71-4.99,3.52-10.54,6.85-16.64,9.98s-12.67,5.73-19.69,7.76c-7.03,2.03-14.24,2.86-21.63,2.5-17.75-1.48-30.23-7.76-37.44-18.86-7.21-11.09-9.9-24.96-8.04-41.59-16.64,15.53-33.47,28.93-50.47,40.21-17.01,11.27-33.28,17.1-48.8,17.47-14.06-1.48-25.23-5.46-33.55-11.92-8.32-6.46-14.51-14.14-18.58-23.02-4.07-8.87-6.38-18.39-6.93-28.56-.55-10.16-.28-19.69,.83-28.56,1.47-8.13,3.14-14.78,4.99-19.97,3.69-13.67,9.79-28.65,18.3-44.92,8.5-16.27,18.67-32.53,30.5-48.8,11.83-16.27,24.86-31.98,39.1-47.14,14.23-15.16,29.3-28.65,45.2-40.49,15.89-11.83,32.07-21.26,48.53-28.28,16.45-7.02,32.81-10.54,49.08-10.54,4.8,0,9.43,.37,13.86,1.11,4.44,.75,9.24,1.85,14.42,3.33,8.87,2.96,15.62,7.68,20.24,14.14,4.62,6.47,7.76,14.06,9.43,22.74,1.66,8.69,2.22,17.94,1.66,27.73-.55,9.8-1.94,19.51-4.16,29.12Zm-64.89,0c3.69-1.85,8.04-2.22,13.03-1.11,4.99,1.11,10.07,3.15,15.25,6.1-1.85-1.85-2.41-3.88-1.66-6.1,.36-1.11,.46-2.4,.28-3.88-.19-1.47-.1-2.95,.28-4.44,.36-3.69,.55-7.57,.55-11.65s-.55-7.85-1.66-11.37c-1.11-3.51-2.96-6.38-5.55-8.6-2.59-2.22-6.1-3.51-10.54-3.88-13.68-.36-27.73,4.53-42.15,14.7-14.42,10.17-28.28,23.02-41.59,38.54-13.31,15.53-25.42,32.17-36.33,49.91-10.91,17.75-19.51,33.83-25.79,48.25-1.85,4.07-3.7,9.15-5.55,15.25-1.85,6.1-3.15,12.11-3.88,18.02-.75,4.07-1.11,7.96-1.11,11.65s.83,6.85,2.5,9.43c1.66,2.59,4.16,4.25,7.49,4.99,3.33,.75,7.95,.37,13.86-1.11,5.55-1.47,12.56-5.73,21.07-12.76,8.5-7.02,17.47-15.25,26.9-24.68,9.43-9.43,18.67-19.5,27.73-30.23,9.06-10.72,16.72-20.33,23.02-28.84,5.55-11.09,10.62-21.91,15.25-32.44,4.62-10.54,7.85-19.5,9.71-26.9l-1.11-8.87Z"/><path class="cls-1" d="M1561.08,1649.32c-7.03,9.62-16.27,21.27-27.73,34.94-11.46,13.68-23.94,26.99-37.44,39.93-13.5,12.95-27.45,23.94-41.87,33-14.42,9.06-27.92,13.59-40.49,13.59-7.76,0-15.16-1.39-22.18-4.16-7.03-2.77-12.76-7.12-17.19-13.03-4.44-5.91-7.49-13.59-9.15-23.02-1.66-9.43-1.21-20.61,1.38-33.55,2.58-11.09,5.82-21.99,9.71-32.72,3.88-10.72,8.68-21.99,14.42-33.83,5.73-11.83,12.29-24.68,19.69-38.54,7.39-13.86,15.89-29.48,25.51-46.86,4.44-7.02,8.13-13.86,11.09-20.52,2.96-6.66,4.8-12.01,5.54-16.08-.74,.75-3.14,2.96-7.21,6.66-4.07,3.7-10.54,9.06-19.41,16.08-15.9,12.95-30.42,25.79-43.54,38.54-13.13,12.76-26.34,26.9-39.65,42.43-3.7,6.29-7.21,12.76-10.54,19.41s-6.65,13.5-9.98,20.52v-1.11c-8.14,17.01-15.35,34.11-21.63,51.3-6.29,17.19-11.46,34.85-15.53,52.96-1.11,4.44-4.81,6.46-11.09,6.1-6.29-.37-12.95-2.13-19.97-5.27-7.03-3.14-13.41-7.21-19.13-12.2-5.74-4.99-8.41-9.89-8.04-14.7,6.66-31.42,16.54-61.74,29.67-90.95,13.12-29.2,27.45-58.41,42.98-87.63,4.8-9.61,9.15-18.11,13.03-25.51,3.88-7.39,6.74-12.2,8.6-14.42-4.81,2.22-14.61,9.06-29.39,20.52-15.53,12.95-29.86,25.88-42.98,38.82-13.13,12.95-26.53,27.17-40.21,42.7-12.57,22.93-23.85,46.31-33.83,70.16-9.98,23.85-18.12,47.97-24.4,72.38-1.48,4.06-5.36,5.91-11.65,5.55-6.29-.37-12.85-2.13-19.69-5.27-6.85-3.14-12.95-7.11-18.3-11.92-5.36-4.8-7.85-9.61-7.49-14.42,3.33-16.64,7.68-32.81,13.03-48.53,5.35-15.71,11.37-31.24,18.02-46.59,6.65-15.34,13.77-30.5,21.35-45.48,7.57-14.97,15.25-30.03,23.02-45.2,8.87-17.75,17.56-35.03,26.07-51.85,8.5-16.82,16.08-33,22.74-48.53,4.44-2.22,9.89-2.31,16.36-.28,6.46,2.04,12.66,5.27,18.58,9.71,5.91,4.44,11.09,9.9,15.53,16.36,4.44,6.47,7.21,13.22,8.32,20.24,15.89-13.31,31.98-24.58,48.25-33.83,16.27-9.24,32.53-14.42,48.8-15.53,4.06,0,8.22,1.48,12.48,4.44,4.25,2.96,8.13,6.85,11.65,11.65,3.51,4.81,6.38,10.17,8.6,16.08,2.22,5.92,3.51,11.65,3.88,17.19,15.53-13.31,31.52-24.58,47.97-33.83,16.45-9.24,33-14.42,49.64-15.53,4.8,0,9.79,2.31,14.97,6.93,5.17,4.63,9.61,10.36,13.31,17.19,3.69,6.85,6.1,14.14,7.21,21.91,1.11,7.76,0,14.61-3.33,20.52v-.55c-9.62,20.34-18.77,38.27-27.45,53.8-8.69,15.53-16.73,29.58-24.12,42.15-5.92,10.36-11.28,19.97-16.08,28.84-4.81,8.87-9.25,17.56-13.31,26.07-4.07,8.51-7.68,17.19-10.81,26.07-3.15,8.87-6.02,18.3-8.6,28.28l2.77-3.88c11.83-5.55,25.79-14.97,41.87-28.28,16.08-13.31,33-31.42,50.74-54.35,5.17-6.28,10.07-12.84,14.7-19.69,4.62-6.84,9.52-13.95,14.7-21.35l8.87-12.2c4.06-4.8,8.6-7.39,13.59-7.76,4.99-.36,9.24,.83,12.76,3.6,3.51,2.77,5.63,6.65,6.38,11.65,.74,4.99-1.11,10.63-5.54,16.92-6.29,8.87-12.67,17.75-19.13,26.62-6.47,8.87-12.85,17.75-19.13,26.62l-.55,.55Z"/><path class="cls-1" d="M1813.41,1534.52c-.37,2.22-1.76,3.98-4.16,5.27-2.41,1.3-5.27,2.22-8.6,2.77-3.33,.55-6.75,.83-10.26,.83s-6.57-.55-9.15-1.66c5.17,3.33,9.98,7.21,14.42,11.65,4.44,4.44,8.13,9.34,11.09,14.7,2.95,5.36,4.9,10.81,5.82,16.36,.92,5.55,.28,10.91-1.94,16.08-1.48,2.59-3.15,5.46-4.99,8.6-1.85,3.15-3.7,6.38-5.55,9.71-4.07,7.03-8.23,14.61-12.48,22.74-4.25,8.14-8.23,16.08-11.92,23.85-3.7,7.76-6.93,15.07-9.71,21.91-2.77,6.85-4.53,12.67-5.27,17.47,0,.75-.28,1.3-.83,1.66-.55,.37-1.02,.75-1.39,1.11h3.88c11.09-3.69,21.81-9.79,32.17-18.3,10.35-8.5,20.42-18.21,30.22-29.12,9.79-10.9,19.22-22.55,28.29-34.94,9.05-12.38,17.65-24.31,25.79-35.77,2.96-2.96,5.17-5.55,6.66-7.76,1.47-2.22,2.96-4.62,4.44-7.21,1.47-1.85,4.25-2.31,8.32-1.39,4.06,.93,7.95,2.69,11.65,5.27,3.69,2.59,6.66,5.64,8.87,9.15,2.22,3.52,2.22,6.57,0,9.15l-16.08,22.18v.55c-15.9,21.82-32.44,43.35-49.64,64.61-17.19,21.27-36.33,40.4-57.4,57.4-3.33,2.96-7.49,6.2-12.48,9.71-4.99,3.52-10.54,6.85-16.64,9.98s-12.67,5.73-19.69,7.76c-7.03,2.03-14.24,2.86-21.63,2.5-17.75-1.48-30.23-7.76-37.43-18.86-7.21-11.09-9.9-24.96-8.04-41.59-16.64,15.53-33.47,28.93-50.47,40.21-17.01,11.27-33.28,17.1-48.8,17.47-14.06-1.48-25.23-5.46-33.55-11.92-8.32-6.46-14.51-14.14-18.58-23.02-4.07-8.87-6.38-18.39-6.93-28.56-.55-10.16-.28-19.69,.83-28.56,1.47-8.13,3.14-14.78,4.99-19.97,3.69-13.67,9.79-28.65,18.3-44.92,8.5-16.27,18.67-32.53,30.5-48.8,11.83-16.27,24.86-31.98,39.1-47.14,14.23-15.16,29.3-28.65,45.2-40.49,15.89-11.83,32.07-21.26,48.53-28.28,16.45-7.02,32.81-10.54,49.08-10.54,4.8,0,9.43,.37,13.86,1.11,4.44,.75,9.24,1.85,14.42,3.33,8.87,2.96,15.62,7.68,20.24,14.14,4.62,6.47,7.76,14.06,9.43,22.74,1.66,8.69,2.22,17.94,1.66,27.73-.55,9.8-1.94,19.51-4.16,29.12Zm-64.89,0c3.69-1.85,8.04-2.22,13.03-1.11s10.07,3.15,15.25,6.1c-1.85-1.85-2.41-3.88-1.66-6.1,.36-1.11,.46-2.4,.28-3.88-.19-1.47-.1-2.95,.28-4.44,.36-3.69,.55-7.57,.55-11.65s-.55-7.85-1.66-11.37c-1.11-3.51-2.96-6.38-5.55-8.6-2.59-2.22-6.1-3.51-10.54-3.88-13.68-.36-27.73,4.53-42.15,14.7-14.42,10.17-28.28,23.02-41.59,38.54s-25.42,32.17-36.33,49.91c-10.91,17.75-19.51,33.83-25.79,48.25-1.85,4.07-3.7,9.15-5.55,15.25-1.85,6.1-3.15,12.11-3.88,18.02-.75,4.07-1.11,7.96-1.11,11.65s.83,6.85,2.5,9.43c1.66,2.59,4.16,4.25,7.49,4.99,3.33,.75,7.95,.37,13.87-1.11,5.55-1.47,12.57-5.73,21.08-12.76,8.5-7.02,17.47-15.25,26.9-24.68,9.43-9.43,18.67-19.5,27.73-30.23,9.06-10.72,16.72-20.33,23.02-28.84,5.55-11.09,10.62-21.91,15.25-32.44,4.62-10.54,7.85-19.5,9.71-26.9l-1.11-8.87Z"/><path class="cls-1" d="M2087.38,1660.97c-10.36,12.57-21.82,25.42-34.38,38.54-12.57,13.13-25.88,25.05-39.93,35.77-14.05,10.73-28.66,19.41-43.81,26.07-15.17,6.66-30.14,9.61-44.92,8.87-8.51-.37-15.72-2.41-21.63-6.1-5.92-3.7-10.45-8.6-13.59-14.7-3.15-6.1-5.09-13.03-5.82-20.8-.75-7.76-.37-15.89,1.11-24.4,2.58-12.2,6.28-23.66,11.09-34.38,4.8-10.72,10.44-20.88,16.92-30.5,6.46-9.61,13.4-19.04,20.8-28.28,7.39-9.24,15.16-18.67,23.29-28.28l13.31-15.53v.55l16.08-18.86c2.96-4.06,6.93-7.76,11.92-11.09,4.99-3.33,12.84-6.46,23.57-9.43-5.18,1.11-9.43,1.94-12.76,2.5-3.33,.55-6.29,1.2-8.87,1.94-4.81,1.11-9.62,2.22-14.42,3.33-4.81,1.11-10.36,1.48-16.64,1.11h-5.55c-9.98,12.57-19.41,24.87-28.28,36.88-8.87,12.02-17.19,23.39-24.96,34.11v-.55c-1.48,2.22-4.07,2.77-7.76,1.66-3.7-1.11-7.21-3.05-10.54-5.82s-6.01-5.91-8.04-9.43c-2.04-3.51-1.94-6.56,.28-9.15v.55c10.72-14.05,19.78-26.34,27.18-36.88,7.39-10.54,14.05-19.87,19.96-28.01-2.96-6.28-3.52-13.67-1.66-22.18,1.85-11.46,5.91-21.63,12.2-30.5,6.28-8.87,13.67-19.22,22.18-31.06,3.33-4.8,6.93-10.17,10.81-16.08,3.88-5.91,7.85-13.12,11.92-21.63,5.17,2.96,10.35,6.01,15.53,9.15,5.17,3.15,9.71,6.85,13.59,11.09,3.88,4.25,6.74,9.15,8.6,14.7,1.85,5.55,2.22,11.84,1.11,18.86-.75,3.33-1.66,6.93-2.77,10.81-1.11,3.88-3.15,8.41-6.1,13.59l-23.29,24.96c-1.85,2.22-.93,2.5,2.77,.83,3.69-1.66,9.06-4.52,16.08-8.6,7.02-4.06,14.97-8.87,23.85-14.42,8.87-5.55,17.56-11.09,26.07-16.64,8.5-5.55,15.99-10.72,22.46-15.53,6.46-4.8,11-8.5,13.59-11.09,2.22,0,4.99,1.11,8.32,3.33,3.33,2.22,6.56,4.71,9.71,7.49,3.14,2.77,5.91,5.36,8.32,7.76,2.4,2.41,3.79,3.98,4.16,4.71,2.96,6.29,2.96,13.78,0,22.46-2.96,8.69-7.86,18.22-14.7,28.56-6.85,10.35-15.16,21.35-24.96,33-9.8,11.65-20.06,23.57-30.78,35.77-6.29,6.66-12.39,13.31-18.3,19.97-5.92,6.66-11.84,13.5-17.75,20.52-4.44,5.18-9.43,11.09-14.97,17.75-5.55,6.65-10.91,13.41-16.08,20.24-5.18,6.85-9.62,13.59-13.31,20.24-3.7,6.66-5.92,12.2-6.65,16.64-.75,2.22,1.11,3.33,5.55,3.33,4.06,.37,9.43-1.01,16.08-4.16,6.66-3.14,13.87-7.57,21.63-13.31,7.76-5.73,15.71-12.48,23.85-20.24,8.13-7.76,15.71-16.27,22.74-25.51h-.55c9.61-11.83,18.67-23.47,27.18-34.94,8.5-11.46,15.34-21.26,20.52-29.39,1.85-1.85,4.62-2.12,8.32-.83,3.69,1.3,7.21,3.42,10.54,6.38,3.33,2.96,5.91,6.38,7.76,10.26,1.85,3.88,1.66,7.12-.55,9.71l.55-1.11-19.97,27.73-26.07,37.16-1.11,.55Z"/><path class="cls-1" d="M2181.89,1763.33c.42-15.88-3.54-31.35-5.27-47.05-6.26,.98-11.8,.86-16.59-.4l1.11,.55c-8.51-1.85-13.96-7.21-16.36-16.08-2.41-8.87-3.05-18.3-1.94-28.28,34.38-10.72,66.64-27.18,96.78-49.36,30.13-22.18,56.29-49.91,78.47-83.19l-.55,.55c6.28-8.5,11.18-16.54,14.7-24.12,3.51-7.57,5.82-15.06,6.93-22.46,2.96-16.64,.55-29.85-7.21-39.65-7.76-9.79-19.23-14.88-34.38-15.25-14.42-.36-29.49,2.22-45.2,7.76-15.72,5.55-30.78,12.76-45.2,21.63-14.42,8.87-27.73,18.58-39.93,29.12-12.2,10.54-22.38,20.43-30.5,29.67-23.29,28.1-41.32,54.17-54.07,78.2-12.76,24.04-20.8,48.62-24.12,73.76-3.7,28.84,.83,51.58,13.59,68.22,12.76,16.64,33.55,24.96,62.39,24.96,4.44,0,10.62-.28,18.58-.83,7.95-.55,16.92-2.22,26.9-4.99,.74-.21,1.5-.44,2.25-.66-.25-.6-.38-1.29-.36-2.08Zm-.23-178.62c9.61-14.23,20.15-27.63,31.61-40.21,11.46-12.56,23.66-23.48,36.6-32.72,12.94-9.24,26.07-15.16,39.38-17.75,5.17-1.47,7.39,.37,6.66,5.55-.75,2.22-1.58,4.81-2.5,7.76-.93,2.96-2.5,5.92-4.71,8.87v-.55c-15.9,25.51-35.13,47.42-57.68,65.72-22.56,18.3-46.96,32.82-73.21,43.54,6.28-12.56,14.23-25.97,23.85-40.21Z"/></g><path class="cls-1" d="M2145.96,1712.36c.8,1.13,2.61,1.02,3.75,1.27,29.3,4.5,59.6-.07,85.9-14.06,19.66-10.25,35.98-24.63,52.37-40.47,8.89-8.59,18.41-17.18,27.89-24.99,38.17-31.72,79.6-59.69,125.02-79.96,34.3-15.38,71.61-25.1,109.41-24.9,43.57-.02,99.35,9.46,134.41,36.6,67.64,53.74-15.67,128.11-61.44,163.38-43.57,33.29-90.62,61.98-140.85,83.97-16.39,6.8-34.49,13.93-51.33,19.2,0,0-17.44,5.42-17.44,5.42l-17.64,4.72c-8.09,2.3-18.44,4.27-26.65,6.25-20.28,4.16-42.44,7.67-63.03,9.84-36.16,3.84-72.75,4.77-109.05,3.11-4.71-.26-13.21-.8-18.02-.86-104.57-1.21-256.35-2.93-360.92-4.13-24.94-.01-83.17-.52-108.33-.57,0,0-577.76-3.03-577.76-3.03,0,0,72.21-1.94,72.21-1.94,328.92-7.58,664.73-14.53,993.67-12.97,29.34,.92,58.8,.06,87.95-2.69,22.79-2.09,46.86-5.69,69.26-10.44,7.92-1.42,17.66-4.07,25.54-5.89,5.6-1.28,19.5-5.36,25.25-6.91,16.11-5.1,33.75-10.98,49.25-17.47,12.67-5.1,27.48-11.94,39.63-17.92,7.07-3.81,16.02-8.4,23.02-12.28,30.31-17.28,59.93-36.96,87.25-58.45,17.78-14.08,35.13-29.37,49.79-46.32,11.81-13.93,27.25-34.98,24.84-52.96-.94-5.41-3.82-10.42-7.33-14.73-6.12-7.47-14.41-14.02-23.03-19.29-29.49-17.79-64.41-26.27-98.78-25.9-30.69,.44-60.6,8.84-88.29,21.78-46.5,21.94-87.35,54.7-123.33,91.19-17.51,17.43-30.99,36.39-49.13,53.91-34.28,34.36-81.29,55.19-130.25,55.55-6.12,.14-12.23-.05-18.33-.45-.87-.07-1.74-.09-2.65,.23,0,0,7.15-56.83,7.15-56.83h0Z"/></svg>